<svg width="260" height="260" viewBox="0 0 260 260" fill="none" xmlns="http://www.w3.org/2000/svg">
  <defs>
    <linearGradient id="copper" x1="40" y1="220" x2="220" y2="40" gradientUnits="userSpaceOnUse">
      <stop stop-color="#C08A52"/>
      <stop offset="1" stop-color="#A36A32"/>
    </linearGradient>
  </defs>
  <rect x="16" y="16" width="228" height="228" rx="56" fill="#0F172A"/>
  <g fill="url(#copper)">
    <!-- Hammer + T stem -->
    <path d="M78 82c0-7.2 5.8-13 13-13h78c3.5 0 6.3 2.8 6.3 6.3V90c0 3.5-2.8 6.3-6.3 6.3h-37v92.4c0 4.1-3.3 7.4-7.4 7.4h-9.2c-4.1 0-7.4-3.3-7.4-7.4V96.3H91c-7.2 0-13-5.8-13-13V82Z"/>
    <!-- Hammer claw curve (left) -->
    <path d="M78 83c0-4.4 3.2-8 7.1-8 6.8 0 16.4 4.9 16.4 12.8v7.2H78V83Z"/>
    <!-- F arm (forge) -->
    <path d="M133.5 124c0-4.4 3.6-8 8-8H167c4.4 0 8 3.6 8 8s-3.6 8-8 8h-17.5v14H165c4.4 0 8 3.6 8 8s-3.6 8-8 8h-23.5c-4.4 0-8-3.6-8-8V124Z"/>
    <!-- Window / spark blocks -->
    <rect x="120" y="194" width="10" height="10" rx="2"/>
    <rect x="136" y="194" width="10" height="10" rx="2"/>
  </g>
</svg>
